<svg
	style="width: 100%; height: 100%"
	viewBox="0 0 140 57"
	fill="none"
	xmlns="http://www.w3.org/2000/svg"
>
	<circle cx="108" cy="30" r="24" fill="url(#paint0_radial_1451_2401)" />
	<path
		d="M4.55859 29.8047C4.23047 29.8047 3.91797 29.7422 3.62109 29.6172C3.33203 29.4844 3.07812 29.3125 2.85938 29.1015C2.64062 28.8828 2.46875 28.6289 2.34375 28.3398C2.21875 28.0429 2.15625 27.7304 2.15625 27.4023V22.5976C2.15625 22.2695 2.21875 21.9609 2.34375 21.6719C2.46875 21.375 2.64062 21.1211 2.85938 20.9101C3.07812 20.6914 3.33203 20.5195 3.62109 20.3945C3.91797 20.2617 4.23047 20.1953 4.55859 20.1953H12.7148C13.043 20.1953 13.3516 20.2617 13.6406 20.3945C13.9375 20.5195 14.1953 20.6914 14.4141 20.9101C14.6328 21.1211 14.8047 21.375 14.9297 21.6719C15.0547 21.9609 15.1172 22.2695 15.1172 22.5976V24.7656H12.7148V22.5976H4.55859V27.4023H12.7148C13.043 27.4023 13.3516 27.4648 13.6406 27.5898C13.9375 27.7148 14.1953 27.8867 14.4141 28.1054C14.6328 28.3242 14.8047 28.582 14.9297 28.8789C15.0547 29.1679 15.1172 29.4765 15.1172 29.8047V34.5976C15.1172 34.9258 15.0547 35.2383 14.9297 35.5351C14.8047 35.8242 14.6328 36.0781 14.4141 36.2969C14.1953 36.5156 13.9375 36.6875 13.6406 36.8125C13.3516 36.9375 13.043 37 12.7148 37H4.32422C3.99609 37 3.68359 36.9375 3.38672 36.8125C3.09766 36.6875 2.84375 36.5156 2.625 36.2969C2.40625 36.0781 2.23438 35.8242 2.10938 35.5351C1.98438 35.2383 1.92188 34.9258 1.92188 34.5976V32.4414H4.32422V34.5976H12.7148V29.8047H4.55859ZM19.8117 20.1953H33.2531V22.5976H27.7336V37H25.3312V22.5976H19.8117V20.1953ZM43.4555 20.1953L49.9359 37H47.5336L46.0453 33.1328H38.4633L36.975 37H34.5727L41.0531 20.1953H43.4555ZM39.3773 30.7304H45.1195L42.2602 23.3242L39.3773 30.7304ZM65.5641 28.2344C65.9156 28.3437 66.2359 28.5 66.525 28.7031C66.8141 28.9062 67.0602 29.1679 67.2633 29.4883C67.4664 29.8008 67.6227 30.1719 67.732 30.6015C67.8414 31.0312 67.8961 31.5234 67.8961 32.0781V32.9219C67.8961 35.6406 66.5367 37 63.818 37H54.6188V20.1953H63.3375C66.0563 20.1953 67.4156 21.5586 67.4156 24.2851V24.5898C67.4156 25.5351 67.2633 26.3086 66.9586 26.9101C66.6617 27.5039 66.1969 27.9453 65.5641 28.2344ZM56.9742 29.6758V34.6445H63.7477C64.3805 34.6445 64.8375 34.4961 65.1188 34.1992C65.4 33.9023 65.5406 33.4375 65.5406 32.8047V31.5039C65.5406 30.8633 65.4 30.3984 65.1188 30.1094C64.8375 29.8203 64.3805 29.6758 63.7477 29.6758H56.9742ZM56.9742 22.5508V27.332H63.4313C64.0094 27.3086 64.4234 27.1523 64.6734 26.8633C64.9313 26.5664 65.0602 26.1133 65.0602 25.5039V24.4023C65.0602 23.7617 64.9195 23.2929 64.6383 22.9961C64.357 22.6992 63.9 22.5508 63.2672 22.5508H56.9742ZM75.6961 20.1953V37H73.2937V20.1953H75.6961ZM84.2227 20.1953V34.5976H92.8594V37H81.8203V20.1953H84.2227Z"
		fill="black"
	/>
	<path
		d="M123.156 20.1953H125.559V34.5976H135.156V20.1953H137.559V34.5976C137.559 34.9258 137.496 35.2383 137.371 35.5351C137.246 35.8242 137.074 36.0781 136.855 36.2969C136.637 36.5156 136.379 36.6875 136.082 36.8125C135.793 36.9375 135.484 37 135.156 37H125.559C125.23 37 124.918 36.9375 124.621 36.8125C124.332 36.6875 124.078 36.5156 123.859 36.2969C123.641 36.0781 123.469 35.8242 123.344 35.5351C123.219 35.2383 123.156 34.9258 123.156 34.5976V20.1953Z"
		fill="black"
	/>
	<path
		d="M96.8008 33.3515L110.609 14.9922H115.316V33.3515H119.086V37.1992H115.316V43H111.312V37.1992H96.8008V33.3515ZM111.312 33.3515V19.8359L101.156 33.3515H111.312Z"
		fill="black"
	/>
	<defs>
		<radialGradient
			id="paint0_radial_1451_2401"
			cx="0"
			cy="0"
			r="1"
			gradientUnits="userSpaceOnUse"
			gradientTransform="translate(108 30) rotate(90) scale(24)"
		>
			<stop offset="0.380208" stop-color="white" />
			<stop offset="1" stop-color="#FFEF22" />
		</radialGradient>
	</defs>
</svg>
